# xmcd
#
# Track frame offsets: 
#        150
#        15988
#        32411
#        59109
#        77058
#        90994
#        107926
#        125192
#        143391
#
# Disc length: 2404 seconds
#
# Revision: 2
# Processed by: cddbd v1.5.2PL0 Copyright (c) Steve Scherf et al.
# Submitted via: ExactAudioCopy v1.0b4
#
DISCID=6c096209
DTITLE=Peter Green - Kolors
DYEAR=1983
DGENRE=Blues Rock
TTITLE0=What Am I Doing Here?
TTITLE1=Bad Bad Feeling
TTITLE2=Big Boy Now
TTITLE3=Black Woman
TTITLE4=Bandit
TTITLE5=Same Old Blues
TTITLE6=Liquor and you
TTITLE7=Gotta do it with me
TTITLE8=Funky Jam
EXTD=
EXTT0=
EXTT1=
EXTT2=
EXTT3=
EXTT4=
EXTT5=
EXTT6=
EXTT7=
EXTT8=
PLAYORDER=
